<svg version="1.1" xmlns="http://www.w3.org/2000/svg" viewBox="0 0 861.211470434186 558" width="1722.422940868372" height="1116">
  <!-- svg-source:excalidraw -->
  
  <defs>
    <style class="style-fonts">
      @font-face {
        font-family: "Virgil";
        src: url("https://file%2B.vscode-resource.vscode-cdn.net/home/borag/.vscode/extensions/pomdtr.excalidraw-editor-3.7.3/public//dist/excalidraw-assets/Virgil.woff2");
      }
      @font-face {
        font-family: "Cascadia";
        src: url("https://file%2B.vscode-resource.vscode-cdn.net/home/borag/.vscode/extensions/pomdtr.excalidraw-editor-3.7.3/public//dist/excalidraw-assets/Cascadia.woff2");
      }
      @font-face {
        font-family: "Assistant";
        src: url("https://file%2B.vscode-resource.vscode-cdn.net/home/borag/.vscode/extensions/pomdtr.excalidraw-editor-3.7.3/public//dist/excalidraw-assets/Assistant-Regular.woff2");
      }
    </style>
    
  </defs>
  <rect x="0" y="0" width="861.211470434186" height="558" fill="#ffffff"></rect><g stroke-linecap="round" transform="translate(61.211470434186054 75) rotate(0 395 220)"><path d="M32 0 C319.73 -4.89, 610.97 -4.09, 758 0 C778.97 -2.97, 787.96 7.29, 790 32 C786.52 157.08, 788.98 277.43, 790 408 C786.71 430.44, 777.17 437.83, 758 440 C544.48 442.82, 330.89 443.23, 32 440 C8.76 440.48, 1.8 432.39, 0 408 C-2.18 272.31, -0.14 137.97, 0 32 C-0.74 10.92, 9 1.65, 32 0" stroke="none" stroke-width="0" fill="#ebfbee"></path><path d="M32 0 C273.55 -3.1, 516.65 -2.16, 758 0 M32 0 C182.95 0.89, 333.71 1.04, 758 0 M758 0 C777.62 1.73, 791.1 8.98, 790 32 M758 0 C778.84 1.49, 790.64 12.95, 790 32 M790 32 C789.65 172.47, 788.71 315.03, 790 408 M790 32 C791.87 120.88, 792.07 210.81, 790 408 M790 408 C790.02 427.74, 778.18 439.82, 758 440 M790 408 C790.49 427.77, 777.5 438.5, 758 440 M758 440 C545.38 439.88, 333.24 440.25, 32 440 M758 440 C609.9 439.97, 461.94 439.58, 32 440 M32 440 C10.89 438.34, -1.53 430.34, 0 408 M32 440 C12.89 440.57, -0.06 428.49, 0 408 M0 408 C-1.78 293.58, -1.73 176.75, 0 32 M0 408 C-1.5 316.59, -1.23 225.44, 0 32 M0 32 C-0.85 8.91, 9.28 -1.2, 32 0 M0 32 C1.59 11.49, 10.06 1.31, 32 0" stroke="#1e1e1e" stroke-width="1" fill="none"></path></g><g stroke-linecap="round" transform="translate(122.21147043418605 167) rotate(0 23.5 132.5)"><path d="M11.75 0 C22.86 0.26, 31.97 -1.01, 35.25 0 M11.75 0 C19.84 -0.79, 28.99 0.6, 35.25 0 M35.25 0 C42.98 -1.27, 46.02 4.76, 47 11.75 M35.25 0 C44.97 -1.73, 44.99 2.72, 47 11.75 M47 11.75 C46.3 98.51, 47.77 183.18, 47 253.25 M47 11.75 C48.36 104.29, 47.78 198.27, 47 253.25 M47 253.25 C48.84 262.15, 44.87 266.75, 35.25 265 M47 253.25 C49.06 261.88, 43.32 266.95, 35.25 265 M35.25 265 C26.51 265.98, 15.98 264.23, 11.75 265 M35.25 265 C26.93 265.19, 18 264.87, 11.75 265 M11.75 265 C3.05 266.59, -0.1 262.14, 0 253.25 M11.75 265 C1.98 264.18, -0.55 261.79, 0 253.25 M0 253.25 C-0.22 205.15, 1.04 156.68, 0 11.75 M0 253.25 C0.55 161.38, 0.18 68.05, 0 11.75 M0 11.75 C1.17 5.27, 5.58 0.52, 11.75 0 M0 11.75 C0.86 3.2, 3.09 1, 11.75 0" stroke="#1e1e1e" stroke-width="2" fill="none"></path></g><g transform="translate(78.71147043418605 283.5) rotate(268.64855599368826 64.85992431640625 12.5)"><text x="0" y="0" font-family="Virgil, Segoe UI Emoji" font-size="20px" fill="#1e1e1e" text-anchor="start" style="white-space: pre;" direction="ltr" dominant-baseline="text-before-edge">reverse-proxy</text></g><g transform="translate(108.71147043418605 436.5) rotate(0 34.7099609375 12.5)"><text x="0" y="0" font-family="Virgil, Segoe UI Emoji" font-size="20px" fill="#1e1e1e" text-anchor="start" style="white-space: pre;" direction="ltr" dominant-baseline="text-before-edge">- envoy</text></g><g stroke-linecap="round" transform="translate(245.46147043418605 172.125) rotate(0 121.75 24)"><path d="M12 0 C77.8 0.22, 142.01 0.99, 231.5 0 M12 0 C71.82 1.6, 129.97 1.55, 231.5 0 M231.5 0 C237.61 -1.02, 244.45 3.79, 243.5 12 M231.5 0 C240.97 -1.01, 244.87 5.34, 243.5 12 M243.5 12 C244.15 19.5, 245.46 26.34, 243.5 36 M243.5 12 C242.95 20.46, 242.63 28.77, 243.5 36 M243.5 36 C243.8 44.84, 237.6 48.43, 231.5 48 M243.5 36 C241.75 45.72, 240.32 47.09, 231.5 48 M231.5 48 C171.84 50.6, 109.67 51.06, 12 48 M231.5 48 C177.53 47.66, 125.31 48.18, 12 48 M12 48 C3.94 47.24, -1.37 43.89, 0 36 M12 48 C4.36 48.45, -0.58 46.11, 0 36 M0 36 C0.3 30.47, 1.27 27.48, 0 12 M0 36 C0.52 25.98, 0.26 16.87, 0 12 M0 12 C0.74 3.5, 2.12 0.55, 12 0 M0 12 C-1.27 5.78, 5.01 -1.81, 12 0" stroke="#1e1e1e" stroke-width="2" fill="none"></path></g><g transform="translate(341.58149606895165 183.625) rotate(0 25.629974365234375 12.5)"><text x="25.629974365234375" y="0" font-family="Virgil, Segoe UI Emoji" font-size="20px" fill="#1e1e1e" text-anchor="middle" style="white-space: pre;" direction="ltr" dominant-baseline="text-before-edge">client</text></g><g transform="translate(248.96147043418605 225.625) rotate(0 105.97987365722656 12.5)"><text x="0" y="0" font-family="Virgil, Segoe UI Emoji" font-size="20px" fill="#1e1e1e" text-anchor="start" style="white-space: pre;" direction="ltr" dominant-baseline="text-before-edge">- chi + nhooyr + htmx</text></g><g stroke-linecap="round" transform="translate(245.46147043418605 272.875) rotate(0 121.75 24)"><path d="M12 0 C91.74 3.18, 170.78 0.41, 231.5 0 M12 0 C61.81 1.56, 114.12 1.7, 231.5 0 M231.5 0 C239.64 -1.54, 243.42 5.09, 243.5 12 M231.5 0 C237.72 -2.11, 243.52 3.07, 243.5 12 M243.5 12 C244.24 15.53, 243.56 22.61, 243.5 36 M243.5 12 C244.72 18.42, 244.43 26.14, 243.5 36 M243.5 36 C243.16 45.2, 240.53 48.97, 231.5 48 M243.5 36 C242.43 43.13, 238.43 47.8, 231.5 48 M231.5 48 C183.79 48.52, 134.11 49.25, 12 48 M231.5 48 C177.42 49.41, 122.43 50.26, 12 48 M12 48 C4.57 46.06, 1.56 43.4, 0 36 M12 48 C5.4 46.83, -1.38 45.13, 0 36 M0 36 C-1.38 29.78, -1.85 24.59, 0 12 M0 36 C-0.27 29.95, 0.05 25.19, 0 12 M0 12 C1.03 4.77, 2.26 0.08, 12 0 M0 12 C0.65 6.01, 4.14 -1.86, 12 0" stroke="#1e1e1e" stroke-width="2" fill="none"></path></g><g transform="translate(337.01150400352196 284.375) rotate(0 30.199966430664062 12.5)"><text x="30.199966430664062" y="0" font-family="Virgil, Segoe UI Emoji" font-size="20px" fill="#1e1e1e" text-anchor="middle" style="white-space: pre;" direction="ltr" dominant-baseline="text-before-edge">server</text></g><g transform="translate(248.96147043418605 326.375) rotate(0 108.78986358642578 12.5)"><text x="0" y="0" font-family="Virgil, Segoe UI Emoji" font-size="20px" fill="#1e1e1e" text-anchor="start" style="white-space: pre;" direction="ltr" dominant-baseline="text-before-edge">- chi + nats + actors</text></g><g stroke-linecap="round" transform="translate(245.46147043418605 372.375) rotate(0 121.75 24)"><path d="M12 0 C96.71 -0.5, 183.86 0.09, 231.5 0 M12 0 C56.85 -1.7, 103.21 -1.81, 231.5 0 M231.5 0 C239.31 1.09, 242.01 5.88, 243.5 12 M231.5 0 C241 0.06, 244.37 2.16, 243.5 12 M243.5 12 C243.45 20.89, 245.37 27.12, 243.5 36 M243.5 12 C243.96 20.5, 243.7 27.33, 243.5 36 M243.5 36 C245.24 44.79, 238.39 49.42, 231.5 48 M243.5 36 C241.83 43.43, 241.52 47.65, 231.5 48 M231.5 48 C188.34 48.83, 144.65 48.87, 12 48 M231.5 48 C183.75 46.33, 133.88 47.12, 12 48 M12 48 C2.05 48.87, 0.41 43.85, 0 36 M12 48 C3.56 49.42, 0.13 43.53, 0 36 M0 36 C-1.09 26.73, 1.85 18.23, 0 12 M0 36 C0.86 27.73, -0.01 18.35, 0 12 M0 12 C-1.14 3.32, 3.77 -1.78, 12 0 M0 12 C-2.22 4.01, 2.33 -0.82, 12 0" stroke="#1e1e1e" stroke-width="2" fill="none"></path></g><g transform="translate(328.67151529502587 383.875) rotate(0 38.539955139160156 12.5)"><text x="38.539955139160156" y="0" font-family="Virgil, Segoe UI Emoji" font-size="20px" fill="#1e1e1e" text-anchor="middle" style="white-space: pre;" direction="ltr" dominant-baseline="text-before-edge">services</text></g><g transform="translate(248.96147043418605 425.875) rotate(0 96.25988006591797 12.5)"><text x="0" y="0" font-family="Virgil, Segoe UI Emoji" font-size="20px" fill="#1e1e1e" text-anchor="start" style="white-space: pre;" direction="ltr" dominant-baseline="text-before-edge">- chi + wazero + js</text></g><g stroke-linecap="round"><g transform="translate(216.21147043418605 121) rotate(0 -1.5 189.25)"><path d="M-0.62 -0.63 C-1.26 62.77, -2.41 316.44, -2.81 379.48" stroke="#1e1e1e" stroke-width="2.5" fill="none" stroke-dasharray="1.5 8"></path></g></g><mask></mask><g stroke-linecap="round"><g transform="translate(526.4289142144146 120.7336259625852) rotate(0 -1.5 189.25)"><path d="M0.32 -0.37 C-0.16 62.67, -3.43 315.6, -3.87 378.61" stroke="#1e1e1e" stroke-width="2.5" fill="none" stroke-dasharray="1.5 8"></path></g></g><mask></mask><g stroke-linecap="round" transform="translate(569.461470434186 172.125) rotate(0 121.75 24)"><path d="M12 0 C60.61 1.09, 111.34 1.49, 231.5 0 M12 0 C76.48 -2.12, 139.77 -1.38, 231.5 0 M231.5 0 C239.65 -0.98, 245.39 5.05, 243.5 12 M231.5 0 C237.55 0.81, 245.62 2.09, 243.5 12 M243.5 12 C243.08 21.13, 241.86 30.06, 243.5 36 M243.5 12 C242.71 19.42, 242.54 27.03, 243.5 36 M243.5 36 C245.38 42.79, 239.59 46.83, 231.5 48 M243.5 36 C244.48 45.05, 237.73 47.88, 231.5 48 M231.5 48 C169.21 49.59, 105.31 48.36, 12 48 M231.5 48 C176.01 47.32, 118.85 46.88, 12 48 M12 48 C3.27 49.47, 0.37 44.31, 0 36 M12 48 C2.78 49.59, -2.24 41.78, 0 36 M0 36 C-1.4 29.84, -0.55 19.41, 0 12 M0 36 C-0.97 26.48, 0.8 19.47, 0 12 M0 12 C-1.5 4.31, 5.85 1.43, 12 0 M0 12 C-1.24 3.29, 2.29 0.21, 12 0" stroke="#1e1e1e" stroke-width="2" fill="none"></path></g><g transform="translate(643.8815296382876 183.625) rotate(0 47.32994079589844 12.5)"><text x="47.32994079589844" y="0" font-family="Virgil, Segoe UI Emoji" font-size="20px" fill="#1e1e1e" text-anchor="middle" style="white-space: pre;" direction="ltr" dominant-baseline="text-before-edge">database</text></g><g transform="translate(572.961470434186 225.625) rotate(0 66.7999267578125 12.5)"><text x="0" y="0" font-family="Virgil, Segoe UI Emoji" font-size="20px" fill="#1e1e1e" text-anchor="start" style="white-space: pre;" direction="ltr" dominant-baseline="text-before-edge">- cockroachdb</text></g><g stroke-linecap="round" transform="translate(569.461470434186 272.875) rotate(0 121.75 24)"><path d="M12 0 C78.13 0.69, 140.34 -0.48, 231.5 0 M12 0 C88.94 1.39, 163.5 1.24, 231.5 0 M231.5 0 C241.34 -1.66, 244.22 3.52, 243.5 12 M231.5 0 C241.13 -0.42, 244.73 2.18, 243.5 12 M243.5 12 C241.61 19.97, 242.79 29.16, 243.5 36 M243.5 12 C243.77 17.2, 244.15 24.03, 243.5 36 M243.5 36 C241.96 43.9, 239.3 48.04, 231.5 48 M243.5 36 C244.44 45.81, 240.58 49.5, 231.5 48 M231.5 48 C169.72 47.82, 111.7 45.97, 12 48 M231.5 48 C160.4 49.53, 88.52 49.99, 12 48 M12 48 C2.05 46.07, 0.19 43.4, 0 36 M12 48 C5.96 46.31, 1.46 43.29, 0 36 M0 36 C0.76 29.26, -2.03 27.68, 0 12 M0 36 C1.11 28.03, -0.36 18.32, 0 12 M0 12 C-1.49 4.18, 5.65 1.66, 12 0 M0 12 C-2.26 3.96, 4.56 -2.07, 12 0" stroke="#1e1e1e" stroke-width="2" fill="none"></path></g><g transform="translate(664.0914982051821 284.375) rotate(0 27.119972229003906 12.5)"><text x="27.119972229003906" y="0" font-family="Virgil, Segoe UI Emoji" font-size="20px" fill="#1e1e1e" text-anchor="middle" style="white-space: pre;" direction="ltr" dominant-baseline="text-before-edge">cache</text></g><g transform="translate(572.961470434186 326.375) rotate(0 32.18995666503906 12.5)"><text x="0" y="0" font-family="Virgil, Segoe UI Emoji" font-size="20px" fill="#1e1e1e" text-anchor="start" style="white-space: pre;" direction="ltr" dominant-baseline="text-before-edge">- redis</text></g><g stroke-linecap="round" transform="translate(569.461470434186 372.375) rotate(0 121.75 24)"><path d="M12 0 C77.37 1.49, 145.35 -1.62, 231.5 0 M12 0 C85.92 1.38, 159.84 1.43, 231.5 0 M231.5 0 C240.57 -1.59, 245.43 4.51, 243.5 12 M231.5 0 C239.26 -2.24, 241.73 3.11, 243.5 12 M243.5 12 C242.15 17.05, 242.19 22.77, 243.5 36 M243.5 12 C243.22 20.32, 243.72 29.39, 243.5 36 M243.5 36 C244.44 45.31, 239.02 47.12, 231.5 48 M243.5 36 C241.51 42.38, 241.45 49.75, 231.5 48 M231.5 48 C171.77 47.63, 109.77 46.39, 12 48 M231.5 48 C150.59 45.9, 70.26 45.53, 12 48 M12 48 C5.27 47.38, -1.75 45.15, 0 36 M12 48 C5.41 49.03, -1.89 41.82, 0 36 M0 36 C0.16 28.39, 1.28 16, 0 12 M0 36 C1 30.37, -0.8 23.07, 0 12 M0 12 C0.49 2.2, 5.37 0.94, 12 0 M0 12 C-1.12 2.61, 1.97 -1.16, 12 0" stroke="#1e1e1e" stroke-width="2" fill="none"></path></g><g transform="translate(657.3615101070376 383.875) rotate(0 33.84996032714844 12.5)"><text x="33.84996032714844" y="0" font-family="Virgil, Segoe UI Emoji" font-size="20px" fill="#1e1e1e" text-anchor="middle" style="white-space: pre;" direction="ltr" dominant-baseline="text-before-edge">stream</text></g><g transform="translate(572.961470434186 425.875) rotate(0 53.19993591308594 12.5)"><text x="0" y="0" font-family="Virgil, Segoe UI Emoji" font-size="20px" fill="#1e1e1e" text-anchor="start" style="white-space: pre;" direction="ltr" dominant-baseline="text-before-edge">- redpanda</text></g><g stroke-linecap="round"><g transform="translate(172.7961261899214 296.8703050320288) rotate(0 35.26997690406844 0.2192913181042968)"><path d="M-0.25 -0.96 C11.32 -0.81, 58.08 -0.24, 69.73 -0.14 M1.81 1.15 C13.74 1.54, 60.31 1.2, 72.02 1.09" stroke="#2f9e44" stroke-width="1" fill="none"></path></g><g transform="translate(172.7961261899214 296.8703050320288) rotate(0 35.26997690406844 0.2192913181042968)"><path d="M43.91 11.56 C51.51 6.89, 61.24 3.4, 72.02 1.09 M43.91 11.56 C50.74 8.93, 55.98 5.61, 72.02 1.09" stroke="#2f9e44" stroke-width="1" fill="none"></path></g><g transform="translate(172.7961261899214 296.8703050320288) rotate(0 35.26997690406844 0.2192913181042968)"><path d="M43.75 -8.96 C51.22 -6.99, 61.01 -3.83, 72.02 1.09 M43.75 -8.96 C50.51 -6.88, 55.79 -5.49, 72.02 1.09" stroke="#2f9e44" stroke-width="1" fill="none"></path></g></g><mask></mask><g transform="translate(171.8818397295407 270) rotate(0 16.93604278564453 10)"><text x="0" y="0" font-family="Virgil, Segoe UI Emoji" font-size="16px" fill="#2f9e44" text-anchor="start" style="white-space: pre;" direction="ltr" dominant-baseline="text-before-edge">http</text></g><g transform="translate(172.71147043418605 161) rotate(0 30.152069091796875 10)"><text x="0" y="0" font-family="Virgil, Segoe UI Emoji" font-size="16px" fill="#2f9e44" text-anchor="start" style="white-space: pre;" direction="ltr" dominant-baseline="text-before-edge">http/ws</text></g><g stroke-linecap="round"><g transform="translate(183.42574488461045 195.81373421563762) rotate(0 29.470730248995608 0.19508467137201535)"><path d="M-0.95 0.02 C9.09 0.09, 50.26 0.79, 60.09 1.04 M0.76 -1.01 C10.75 -1.36, 49.8 -0.88, 59.74 -0.75" stroke="#2f9e44" stroke-width="1" fill="none"></path></g><g transform="translate(183.42574488461045 195.81373421563762) rotate(0 29.470730248995608 0.19508467137201535)"><path d="M31.93 9 C39.96 8.31, 49.03 2.03, 59.74 -0.75 M31.93 9 C42.68 4.66, 53.77 1.92, 59.74 -0.75" stroke="#2f9e44" stroke-width="1" fill="none"></path></g><g transform="translate(183.42574488461045 195.81373421563762) rotate(0 29.470730248995608 0.19508467137201535)"><path d="M32.17 -11.15 C40.24 -6.02, 49.25 -6.48, 59.74 -0.75 M32.17 -11.15 C42.76 -7.53, 53.75 -2.31, 59.74 -0.75" stroke="#2f9e44" stroke-width="1" fill="none"></path></g></g><mask></mask><g stroke-linecap="round"><g transform="translate(172.98331547684288 395.7685900135091) rotate(0 35.26997690406844 0.2192913181042968)"><path d="M-1.1 0.26 C10.72 0.44, 58.42 -0.07, 70.23 -0.09 M0.52 -0.64 C12.22 -0.2, 57.16 0.85, 69.12 1.17" stroke="#2f9e44" stroke-width="1" fill="none"></path></g><g transform="translate(172.98331547684288 395.7685900135091) rotate(0 35.26997690406844 0.2192913181042968)"><path d="M40.68 10.72 C48.08 8.16, 53.63 5.11, 69.12 1.17 M40.68 10.72 C48.33 8.52, 55.95 6.06, 69.12 1.17" stroke="#2f9e44" stroke-width="1" fill="none"></path></g><g transform="translate(172.98331547684288 395.7685900135091) rotate(0 35.26997690406844 0.2192913181042968)"><path d="M41.2 -9.8 C48.28 -7.4, 53.7 -5.51, 69.12 1.17 M41.2 -9.8 C48.66 -6.35, 56.14 -3.15, 69.12 1.17" stroke="#2f9e44" stroke-width="1" fill="none"></path></g></g><mask></mask><g transform="translate(172.06902901646217 368.8982849814803) rotate(0 16.93604278564453 10)"><text x="0" y="0" font-family="Virgil, Segoe UI Emoji" font-size="16px" fill="#2f9e44" text-anchor="start" style="white-space: pre;" direction="ltr" dominant-baseline="text-before-edge">http</text></g><g stroke-linecap="round"><g transform="translate(357.211470434186 227) rotate(0 -0.25 24.75)"><path d="M-0.54 0.15 C-0.66 8.53, -0.29 41.84, -0.28 50.05 M0.18 -0.24 C-0.02 8.02, -0.44 41, -0.6 49.36" stroke="#1971c2" stroke-width="1" fill="none"></path></g><g transform="translate(357.211470434186 227) rotate(0 -0.25 24.75)"><path d="M-8.7 25.98 C-5.45 35.12, -1.72 43.51, -0.6 49.36 M-8.7 25.98 C-6.8 32.26, -4.15 39.69, -0.6 49.36" stroke="#1971c2" stroke-width="1" fill="none"></path></g><g transform="translate(357.211470434186 227) rotate(0 -0.25 24.75)"><path d="M8.23 26.24 C5.18 35.21, 2.6 43.49, -0.6 49.36 M8.23 26.24 C5.32 32.44, 3.15 39.79, -0.6 49.36" stroke="#1971c2" stroke-width="1" fill="none"></path></g></g><mask></mask><g transform="translate(372.711470434186 248) rotate(0 38.872093200683594 10)"><text x="0" y="0" font-family="Virgil, Segoe UI Emoji" font-size="16px" fill="#1971c2" text-anchor="start" style="white-space: pre;" direction="ltr" dominant-baseline="text-before-edge">http/nats</text></g><g stroke-linecap="round"><g transform="translate(356.3888067715195 324.597198335235) rotate(0 -0.25 24.75)"><path d="M-0.2 -0.28 C-0.21 8.06, 0.14 41.62, 0 49.95 M0.7 0.76 C0.65 8.96, -0.06 41.22, -0.17 49.22" stroke="#1971c2" stroke-width="1" fill="none"></path></g><g transform="translate(356.3888067715195 324.597198335235) rotate(0 -0.25 24.75)"><path d="M8.4 22.93 C5.18 16.46, 3.79 7.22, -0.2 -0.28 M8.4 22.93 C5.51 14.77, 2.45 6.64, -0.2 -0.28" stroke="#1971c2" stroke-width="1" fill="none"></path></g><g transform="translate(356.3888067715195 324.597198335235) rotate(0 -0.25 24.75)"><path d="M-8.53 23.02 C-6.38 16.55, -2.4 7.28, -0.2 -0.28 M-8.53 23.02 C-5.64 14.89, -2.93 6.72, -0.2 -0.28" stroke="#1971c2" stroke-width="1" fill="none"></path></g></g><mask></mask><g transform="translate(371.8888067715195 345.597198335235) rotate(0 38.872093200683594 10)"><text x="0" y="0" font-family="Virgil, Segoe UI Emoji" font-size="16px" fill="#1971c2" text-anchor="start" style="white-space: pre;" direction="ltr" dominant-baseline="text-before-edge">http/nats</text></g><g transform="translate(465.711470434186 249.5) rotate(0 44.40008544921875 10)"><text x="0" y="0" font-family="Virgil, Segoe UI Emoji" font-size="16px" fill="#f08c00" text-anchor="start" style="white-space: pre;" direction="ltr" dominant-baseline="text-before-edge">* clustered</text></g><g transform="translate(465.711470434186 146) rotate(0 41.64808654785156 10)"><text x="0" y="0" font-family="Virgil, Segoe UI Emoji" font-size="16px" fill="#f08c00" text-anchor="start" style="white-space: pre;" direction="ltr" dominant-baseline="text-before-edge">* balanced</text></g><g transform="translate(465.711470434186 347) rotate(0 41.64808654785156 10)"><text x="0" y="0" font-family="Virgil, Segoe UI Emoji" font-size="16px" fill="#f08c00" text-anchor="start" style="white-space: pre;" direction="ltr" dominant-baseline="text-before-edge">* balanced</text></g><g transform="translate(73.71147043418605 10) rotate(0 61.64989471435547 25)"><text x="0" y="0" font-family="Virgil, Segoe UI Emoji" font-size="20px" fill="#1e1e1e" text-anchor="start" style="white-space: pre;" direction="ltr" dominant-baseline="text-before-edge">architecture</text><text x="0" y="25" font-family="Virgil, Segoe UI Emoji" font-size="20px" fill="#1e1e1e" text-anchor="start" style="white-space: pre;" direction="ltr" dominant-baseline="text-before-edge">---------------</text></g><g stroke-linecap="round"><g transform="translate(10.211470434186054 271.5) rotate(0 23.5 0)"><path d="M0.3 0.46 C8.19 0.49, 39.01 0.23, 46.82 0.24 M-0.21 0.23 C7.64 0.08, 38.44 -0.51, 46.29 -0.6" stroke="#e03131" stroke-width="1" fill="none"></path></g><g transform="translate(10.211470434186054 271.5) rotate(0 23.5 0)"><path d="M24.33 7.78 C29.66 5.67, 33.75 4.58, 46.29 -0.6 M24.33 7.78 C33 4.37, 41.3 0.94, 46.29 -0.6" stroke="#e03131" stroke-width="1" fill="none"></path></g><g transform="translate(10.211470434186054 271.5) rotate(0 23.5 0)"><path d="M24.08 -8.29 C29.47 -7.11, 33.61 -4.92, 46.29 -0.6 M24.08 -8.29 C32.88 -5.38, 41.28 -2.5, 46.29 -0.6" stroke="#e03131" stroke-width="1" fill="none"></path></g></g><mask></mask><g transform="translate(-19.392388695554416 336.3654263214762) rotate(268.64855599368826 48.4899444580078 12.5)"><text x="0" y="0" font-family="Virgil, Segoe UI Emoji" font-size="20px" fill="#e03131" text-anchor="start" style="white-space: pre;" direction="ltr" dominant-baseline="text-before-edge">cloudflare</text></g><g transform="translate(0.7926767375700194 202.07991164126668) rotate(268.64855599368826 28.769973754882812 12.5)"><text x="0" y="0" font-family="Virgil, Segoe UI Emoji" font-size="20px" fill="#e03131" text-anchor="start" style="white-space: pre;" direction="ltr" dominant-baseline="text-before-edge">tunnel</text></g><g transform="translate(644.711470434186 41) rotate(0 96.2898941040039 12.5)"><text x="0" y="0" font-family="Virgil, Segoe UI Emoji" font-size="20px" fill="#e03131" text-anchor="start" style="white-space: pre;" direction="ltr" dominant-baseline="text-before-edge">hetzner (dedicated)</text></g><g transform="translate(684.9215763301821 523) rotate(0 73.25991821289062 12.5)"><text x="0" y="0" font-family="Virgil, Segoe UI Emoji" font-size="20px" fill="#e03131" text-anchor="start" style="white-space: pre;" direction="ltr" dominant-baseline="text-before-edge">docker-compose</text></g></svg>